<svg width="119" height="19" viewBox="0 0 119 19" fill="none" xmlns="http://www.w3.org/2000/svg">
<path d="M5.5 5.6519C6.88071 3.26044 9.93866 2.44107 12.3301 3.82178V3.82178L6.83013 13.3481C5.44942 15.7395 2.39146 16.5589 0 15.1782V15.1782L5.5 5.6519Z" fill="#2A99FF"/>
<path d="M13.8301 5.6519C15.2108 3.26044 18.2687 2.44107 20.6602 3.82178V3.82178L15.1602 13.3481C13.7795 15.7395 10.7215 16.5589 8.33008 15.1782V15.1782L13.8301 5.6519Z" fill="#2A99FF"/>
<path d="M22.1602 5.6519C23.5409 3.26044 26.5988 2.44107 28.9903 3.82178V3.82178L23.4903 13.3481C22.1096 15.7395 19.0516 16.5589 16.6602 15.1782V15.1782L22.1602 5.6519Z" fill="#2A99FF"/>
<path d="M37.1742 15V3.64H41.9902C42.5129 3.64 42.9929 3.74667 43.4302 3.96C43.8676 4.17333 44.2462 4.46133 44.5662 4.824C44.8969 5.18667 45.1529 5.592 45.3342 6.04C45.5156 6.488 45.6062 6.94667 45.6062 7.416C45.6062 8.056 45.4569 8.664 45.1582 9.24C44.8596 9.816 44.4489 10.2853 43.9262 10.648C43.4036 11.0107 42.7849 11.192 42.0702 11.192H39.3822V15H37.1742ZM39.3822 9.256H41.9422C42.2089 9.256 42.4489 9.18133 42.6622 9.032C42.8756 8.88267 43.0462 8.66933 43.1742 8.392C43.3022 8.104 43.3662 7.77867 43.3662 7.416C43.3662 7.02133 43.2916 6.68533 43.1422 6.408C43.0036 6.13067 42.8169 5.92267 42.5822 5.784C42.3582 5.64533 42.1129 5.576 41.8462 5.576H39.3822V9.256ZM51.927 8.472C51.2763 8.472 50.695 8.6 50.183 8.856C49.671 9.10133 49.303 9.45867 49.079 9.928V15H46.935V6.616H48.903V8.408C49.2017 7.832 49.5803 7.37867 50.039 7.048C50.4977 6.71733 50.983 6.536 51.495 6.504C51.6123 6.504 51.703 6.504 51.767 6.504C51.831 6.504 51.8843 6.50933 51.927 6.52V8.472ZM56.8851 15.16C56.2024 15.16 55.5891 15.048 55.0451 14.824C54.5011 14.5893 54.0371 14.2693 53.6531 13.864C53.2798 13.4587 52.9918 12.9947 52.7891 12.472C52.5864 11.9493 52.4851 11.4 52.4851 10.824C52.4851 10.2373 52.5864 9.68267 52.7891 9.16C52.9918 8.63733 53.2798 8.17333 53.6531 7.768C54.0371 7.36267 54.5011 7.048 55.0451 6.824C55.5891 6.58933 56.2024 6.472 56.8851 6.472C57.5678 6.472 58.1758 6.58933 58.7091 6.824C59.2531 7.048 59.7171 7.36267 60.1011 7.768C60.4851 8.17333 60.7731 8.63733 60.9651 9.16C61.1678 9.68267 61.2691 10.2373 61.2691 10.824C61.2691 11.4 61.1678 11.9493 60.9651 12.472C60.7731 12.9947 60.4851 13.4587 60.1011 13.864C59.7278 14.2693 59.2691 14.5893 58.7251 14.824C58.1811 15.048 57.5678 15.16 56.8851 15.16ZM54.6931 10.824C54.6931 11.3147 54.7891 11.752 54.9811 12.136C55.1731 12.5093 55.4344 12.8027 55.7651 13.016C56.0958 13.2293 56.4691 13.336 56.8851 13.336C57.2904 13.336 57.6584 13.2293 57.9891 13.016C58.3198 12.792 58.5811 12.4933 58.7731 12.12C58.9758 11.736 59.0771 11.2987 59.0771 10.808C59.0771 10.328 58.9758 9.896 58.7731 9.512C58.5811 9.128 58.3198 8.82933 57.9891 8.616C57.6584 8.40267 57.2904 8.296 56.8851 8.296C56.4691 8.296 56.0958 8.408 55.7651 8.632C55.4344 8.84533 55.1731 9.144 54.9811 9.528C54.7891 9.90133 54.6931 10.3333 54.6931 10.824ZM65.9962 15.048C65.4416 15.048 64.9296 14.9413 64.4602 14.728C64.0016 14.504 63.6016 14.1947 63.2602 13.8C62.9296 13.4053 62.6736 12.952 62.4922 12.44C62.3109 11.928 62.2202 11.384 62.2202 10.808C62.2202 10.2 62.3162 9.63467 62.5082 9.112C62.7002 8.58933 62.9669 8.13067 63.3082 7.736C63.6602 7.33067 64.0709 7.02133 64.5402 6.808C65.0202 6.584 65.5482 6.472 66.1242 6.472C66.7749 6.472 67.3456 6.62133 67.8362 6.92C68.3269 7.208 68.7322 7.59733 69.0522 8.088V6.616H70.9242V14.6C70.9242 15.432 70.7216 16.1413 70.3162 16.728C69.9216 17.3253 69.3722 17.7787 68.6682 18.088C67.9642 18.408 67.1642 18.568 66.2682 18.568C65.3616 18.568 64.5936 18.4133 63.9642 18.104C63.3349 17.8053 62.7962 17.3787 62.3482 16.824L63.5162 15.688C63.8362 16.0827 64.2362 16.392 64.7162 16.616C65.2069 16.84 65.7242 16.952 66.2682 16.952C66.7269 16.952 67.1429 16.8667 67.5162 16.696C67.9002 16.536 68.2042 16.28 68.4282 15.928C68.6629 15.5867 68.7802 15.144 68.7802 14.6V13.544C68.5029 14.024 68.1082 14.3973 67.5962 14.664C67.0949 14.92 66.5616 15.048 65.9962 15.048ZM66.7162 13.336C66.9509 13.336 67.1749 13.2987 67.3882 13.224C67.6016 13.1493 67.7989 13.048 67.9802 12.92C68.1616 12.792 68.3216 12.6427 68.4602 12.472C68.5989 12.2907 68.7056 12.1093 68.7802 11.928V9.928C68.6522 9.59733 68.4709 9.30933 68.2362 9.064C68.0122 8.81867 67.7562 8.632 67.4682 8.504C67.1909 8.36533 66.8976 8.296 66.5882 8.296C66.2576 8.296 65.9589 8.36533 65.6922 8.504C65.4256 8.64267 65.1962 8.84 65.0042 9.096C64.8122 9.34133 64.6629 9.61867 64.5562 9.928C64.4602 10.2267 64.4122 10.5413 64.4122 10.872C64.4122 11.2133 64.4709 11.5333 64.5882 11.832C64.7056 12.1307 64.8656 12.392 65.0682 12.616C65.2816 12.84 65.5269 13.016 65.8042 13.144C66.0922 13.272 66.3962 13.336 66.7162 13.336ZM77.8489 8.472C77.1982 8.472 76.6169 8.6 76.1049 8.856C75.5929 9.10133 75.2249 9.45867 75.0009 9.928V15H72.8569V6.616H74.8249V8.408C75.1235 7.832 75.5022 7.37867 75.9609 7.048C76.4195 6.71733 76.9049 6.536 77.4169 6.504C77.5342 6.504 77.6249 6.504 77.6889 6.504C77.7529 6.504 77.8062 6.50933 77.8489 6.52V8.472ZM78.4215 12.52C78.4215 11.976 78.5708 11.5013 78.8695 11.096C79.1788 10.68 79.6055 10.36 80.1495 10.136C80.6935 9.912 81.3175 9.8 82.0215 9.8C82.3735 9.8 82.7308 9.82667 83.0935 9.88C83.4562 9.93333 83.7708 10.0187 84.0375 10.136V9.688C84.0375 9.15467 83.8775 8.744 83.5575 8.456C83.2482 8.168 82.7842 8.024 82.1655 8.024C81.7068 8.024 81.2695 8.104 80.8535 8.264C80.4375 8.424 80.0002 8.65867 79.5415 8.968L78.8535 7.56C79.4082 7.19733 79.9735 6.92533 80.5495 6.744C81.1362 6.56267 81.7495 6.472 82.3895 6.472C83.5842 6.472 84.5122 6.77067 85.1735 7.368C85.8455 7.96533 86.1815 8.81867 86.1815 9.928V12.6C86.1815 12.824 86.2188 12.984 86.2935 13.08C86.3788 13.176 86.5122 13.2347 86.6935 13.256V15C86.5015 15.032 86.3255 15.0587 86.1655 15.08C86.0162 15.1013 85.8882 15.112 85.7815 15.112C85.3548 15.112 85.0295 15.016 84.8055 14.824C84.5922 14.632 84.4588 14.3973 84.4055 14.12L84.3575 13.688C83.9948 14.1573 83.5415 14.52 82.9975 14.776C82.4535 15.032 81.8988 15.16 81.3335 15.16C80.7788 15.16 80.2775 15.048 79.8295 14.824C79.3922 14.5893 79.0455 14.2747 78.7895 13.88C78.5442 13.4747 78.4215 13.0213 78.4215 12.52ZM83.6375 12.952C83.7548 12.824 83.8508 12.696 83.9255 12.568C84.0002 12.44 84.0375 12.3227 84.0375 12.216V11.368C83.7815 11.2613 83.5042 11.1813 83.2055 11.128C82.9068 11.064 82.6242 11.032 82.3575 11.032C81.8028 11.032 81.3442 11.1547 80.9815 11.4C80.6295 11.6347 80.4535 11.9493 80.4535 12.344C80.4535 12.5573 80.5122 12.76 80.6295 12.952C80.7468 13.144 80.9175 13.2987 81.1415 13.416C81.3655 13.5333 81.6322 13.592 81.9415 13.592C82.2615 13.592 82.5762 13.5333 82.8855 13.416C83.1948 13.288 83.4455 13.1333 83.6375 12.952ZM101.209 15H99.065V10.296C99.065 9.63467 98.9477 9.14933 98.713 8.84C98.489 8.52 98.1743 8.36 97.769 8.36C97.353 8.36 96.953 8.52533 96.569 8.856C96.1957 9.176 95.929 9.59733 95.769 10.12V15H93.625V10.296C93.625 9.624 93.5077 9.13333 93.273 8.824C93.049 8.51467 92.7343 8.36 92.329 8.36C91.913 8.36 91.513 8.52 91.129 8.84C90.7557 9.16 90.489 9.58133 90.329 10.104V15H88.185V6.616H90.121V8.168C90.441 7.624 90.8677 7.208 91.401 6.92C91.9343 6.62133 92.5477 6.472 93.241 6.472C93.9343 6.472 94.473 6.64267 94.857 6.984C95.2517 7.32533 95.5023 7.74667 95.609 8.248C95.9503 7.672 96.3823 7.23467 96.905 6.936C97.4383 6.62667 98.0357 6.472 98.697 6.472C99.2197 6.472 99.641 6.568 99.961 6.76C100.292 6.94133 100.548 7.192 100.729 7.512C100.91 7.82133 101.033 8.17333 101.097 8.568C101.172 8.96267 101.209 9.36267 101.209 9.768V15ZM103.252 15V3.64H105.46V15H103.252ZM107.83 15V3.64H111.958C113.196 3.64 114.23 3.896 115.062 4.408C115.894 4.90933 116.518 5.592 116.934 6.456C117.35 7.30933 117.558 8.25867 117.558 9.304C117.558 10.456 117.329 11.4587 116.87 12.312C116.412 13.1653 115.761 13.8267 114.918 14.296C114.086 14.7653 113.1 15 111.958 15H107.83ZM115.334 9.304C115.334 8.568 115.201 7.92267 114.934 7.368C114.668 6.80267 114.284 6.36533 113.782 6.056C113.281 5.736 112.673 5.576 111.958 5.576H110.038V13.064H111.958C112.684 13.064 113.297 12.904 113.798 12.584C114.3 12.2533 114.678 11.8053 114.934 11.24C115.201 10.664 115.334 10.0187 115.334 9.304Z" fill="#252525"/>
</svg>
